<?xml version="1.0" standalone="no"?><!DOCTYPE svg PUBLIC "-//W3C//DTD SVG 1.1//EN" "http://www.w3.org/Graphics/SVG/1.1/DTD/svg11.dtd"><svg t="1706080851918" class="icon" viewBox="0 0 1024 1024" version="1.1" xmlns="http://www.w3.org/2000/svg" p-id="9524" xmlns:xlink="http://www.w3.org/1999/xlink" width="200" height="200"><path d="M533.333333 768c-128 0-234.666667-106.666667-234.666666-234.666667S405.333333 298.666667 533.333333 298.666667 768 405.333333 768 533.333333 661.333333 768 533.333333 768z m0-42.666667c106.666667 0 192-85.333333 192-192S640 341.333333 533.333333 341.333333 341.333333 426.666667 341.333333 533.333333s85.333333 192 192 192zM512 170.666667h42.666667v85.333333h-42.666667V170.666667z m0 640h42.666667v85.333333h-42.666667v-85.333333z m384-298.666667v42.666667h-85.333333v-42.666667h85.333333zM256 512v42.666667H170.666667v-42.666667h85.333333z m520.533333-251.733333l29.866667 29.866666-59.733333 59.733334-29.866667-29.866667 59.733333-59.733333zM324.266667 712.533333l29.866666 29.866667-59.733333 59.733333-29.866667-29.866666 59.733334-59.733334z m482.133333 64l-29.866667 29.866667-59.733333-59.733333 29.866667-29.866667 59.733333 59.733333zM354.133333 324.266667l-29.866666 29.866666-64-64 29.866666-29.866666 64 64z" fill="#ea9518" p-id="9525"></path></svg>