<?xml version="1.0" standalone="no"?><!DOCTYPE svg PUBLIC "-//W3C//DTD SVG 1.1//EN" "http://www.w3.org/Graphics/SVG/1.1/DTD/svg11.dtd"><svg t="1707299183948" class="icon" viewBox="0 0 1024 1024" version="1.1" xmlns="http://www.w3.org/2000/svg" p-id="4263" xmlns:xlink="http://www.w3.org/1999/xlink" width="200" height="200"><path d="M39.68 317.44c-3.84-20.48 8.96-40.96 29.44-46.08L757.76 126.72c2.56 0 5.12-1.28 7.68-1.28 17.92 0 33.28 12.8 37.12 30.72l21.76 99.84h39.68l-23.04-108.8c-7.68-35.84-39.68-61.44-75.52-61.44-5.12 0-10.24 0-16.64 1.28L61.44 235.52c-40.96 8.96-67.84 49.92-58.88 90.88l122.88 576c2.56 12.8 8.96 24.32 16.64 33.28V796.16l-102.4-478.72z" fill="#C9D4DB" p-id="4264"></path><path d="M243.2 733.44v193.28c0 11.52 8.96 20.48 20.48 20.48h663.04c11.52 0 20.48-8.96 20.48-20.48V755.2c0-7.68-3.84-14.08-10.24-17.92l-163.84-89.6c-7.68-3.84-16.64-3.84-23.04 2.56l-98.56 80.64c-8.96 6.4-21.76 6.4-28.16-2.56l-139.52-153.6c-7.68-7.68-19.2-8.96-28.16-2.56L252.16 716.8c-6.4 3.84-8.96 10.24-8.96 16.64z" fill="#C9D4DB" p-id="4265"></path><path d="M793.6 448m-64 0a64 64 0 1 0 128 0 64 64 0 1 0-128 0Z" fill="#C9D4DB" p-id="4266"></path><path d="M947.2 320c21.76 0 38.4 16.64 38.4 38.4v588.8c0 21.76-16.64 38.4-38.4 38.4H243.2c-21.76 0-38.4-16.64-38.4-38.4V358.4c0-21.76 16.64-38.4 38.4-38.4h704m0-38.4H243.2c-42.24 0-76.8 34.56-76.8 76.8v588.8c0 42.24 34.56 76.8 76.8 76.8h704c42.24 0 76.8-34.56 76.8-76.8V358.4c0-42.24-34.56-76.8-76.8-76.8z" fill="#C9D4DB" p-id="4267"></path></svg>